<svg id="svg" version="1.1" width="512" height="471" xmlns="http://www.w3.org/2000/svg">
  <style>
    path {
    fill: #000000;
    }
    @media ( prefers-color-scheme: dark ) {
    path {
    fill: #FFFFFF;
    }
    }
  </style>
  <path d="M96.299 2.250 C 91.932 7.045,92.000 5.726,92.000 85.375 C 92.000 137.270,91.665 162.089,90.960 162.525 C 90.388 162.878,79.758 163.143,67.338 163.114 C 54.308 163.083,43.978 163.477,42.916 164.045 C 41.367 164.874,41.029 166.499,40.787 174.265 L 40.500 183.500 20.250 183.771 L 0.000 184.041 -0.000 215.000 L -0.000 245.959 20.250 246.229 L 40.500 246.500 41.000 339.000 C 41.496 430.816,41.516 431.539,43.652 436.745 C 50.351 453.072,60.361 462.750,76.676 468.671 L 83.091 471.000 256.000 471.000 L 428.909 471.000 435.446 468.627 C 449.378 463.570,458.545 455.960,464.768 444.284 C 471.190 432.236,470.999 435.469,471.014 338.540 C 471.021 290.118,471.299 249.488,471.630 248.250 C 472.230 246.012,472.342 246.000,492.117 246.000 L 512.000 246.000 512.000 215.000 L 512.000 184.000 492.107 184.000 C 474.890 184.000,472.132 183.787,471.607 182.418 C 471.273 181.548,471.000 177.098,471.000 172.530 L 471.000 164.223 467.496 163.565 C 465.569 163.204,454.588 162.982,443.094 163.073 C 431.599 163.164,421.701 162.933,421.098 162.560 C 420.316 162.077,420.000 139.834,420.000 85.375 C 420.000 5.726,420.068 7.045,415.701 2.250 L 413.651 -0.000 256.000 -0.000 L 98.349 0.000 96.299 2.250 M396.000 21.891 L 398.500 22.590 398.500 92.545 L 398.500 162.500 352.500 163.082 C 312.016 163.595,305.900 163.877,301.500 165.434 C 294.608 167.872,290.927 170.271,286.192 175.407 C 272.278 190.502,273.237 212.876,288.391 226.727 C 296.734 234.351,302.953 236.000,323.373 236.000 C 338.717 236.000,339.910 236.138,343.102 238.282 C 348.669 242.021,348.465 250.527,342.723 254.027 C 339.587 255.939,337.245 255.993,256.200 255.996 C 166.766 256.000,168.734 256.108,166.030 251.055 C 164.708 248.585,164.708 243.415,166.030 240.945 C 168.240 236.814,171.998 236.000,188.845 236.000 C 202.025 236.000,205.925 235.649,211.339 233.977 C 220.052 231.286,227.681 224.424,232.226 215.193 C 235.157 209.238,235.498 207.650,235.478 200.021 C 235.460 192.926,235.012 190.543,232.798 185.782 C 229.259 178.169,222.059 170.646,215.212 167.407 C 207.485 163.752,197.802 163.078,152.357 163.036 C 118.519 163.004,114.145 162.821,113.607 161.418 C 113.273 160.548,113.000 129.034,113.000 91.386 L 113.000 22.936 115.250 22.038 C 117.889 20.986,392.249 20.843,396.000 21.891 M156.707 64.016 C 152.781 67.104,151.486 72.116,153.512 76.385 C 156.819 83.352,151.389 83.000,255.433 83.000 C 359.645 83.000,354.716 83.317,357.593 76.432 C 359.567 71.706,358.650 67.725,354.850 64.527 L 351.847 62.000 255.558 62.000 C 160.535 62.000,159.236 62.026,156.707 64.016 M158.299 103.948 C 149.705 109.218,150.778 119.320,160.315 122.933 C 162.207 123.650,185.091 124.000,230.097 124.000 C 302.084 124.000,301.770 124.021,305.369 118.883 C 306.266 117.603,307.000 114.714,307.000 112.465 C 307.000 109.206,306.377 107.777,303.935 105.437 L 300.869 102.500 231.185 102.242 C 163.448 101.992,161.411 102.040,158.299 103.948 M205.329 186.364 C 207.124 187.114,209.792 189.152,211.257 190.893 C 216.725 197.392,215.670 205.714,208.658 211.390 L 204.816 214.500 185.658 215.000 C 167.231 215.481,166.284 215.606,160.839 218.280 C 154.307 221.488,148.688 227.261,145.658 233.878 C 142.568 240.626,142.724 251.759,146.004 258.500 C 149.517 265.722,156.477 272.287,163.347 274.857 C 169.041 276.987,169.587 277.000,256.000 277.000 C 342.545 277.000,342.950 276.991,348.681 274.846 C 360.163 270.551,369.000 258.004,369.000 246.000 C 369.000 235.238,361.588 223.406,351.623 218.259 C 346.740 215.737,345.584 215.587,326.955 215.056 C 310.421 214.586,306.987 214.222,304.658 212.696 C 295.207 206.502,295.979 191.796,306.020 186.752 C 309.233 185.137,314.786 185.004,378.500 185.017 C 416.450 185.024,448.071 185.393,448.770 185.836 C 449.787 186.482,449.986 210.590,449.770 307.071 L 449.500 427.500 447.077 432.423 C 443.993 438.690,438.690 443.993,432.423 447.077 L 427.500 449.500 256.000 449.500 L 84.500 449.500 79.585 447.081 C 73.528 444.100,67.962 438.490,64.854 432.236 L 62.500 427.500 62.230 307.071 C 62.014 210.590,62.213 186.482,63.230 185.836 C 63.929 185.393,95.452 185.024,133.282 185.015 C 189.139 185.003,202.678 185.256,205.329 186.364 M39.793 206.851 C 40.724 207.441,41.004 210.029,40.793 216.086 L 40.500 224.500 33.012 224.799 C 20.844 225.284,21.000 225.403,21.000 215.648 C 21.000 211.075,21.300 207.033,21.667 206.667 C 22.621 205.712,38.248 205.871,39.793 206.851 M490.793 214.914 C 491.004 220.971,490.724 223.559,489.793 224.149 C 489.082 224.600,484.840 224.976,480.367 224.985 C 472.771 224.999,472.193 224.851,471.630 222.750 C 470.494 218.511,470.930 207.196,472.250 206.644 C 472.938 206.356,477.325 206.206,482.000 206.310 L 490.500 206.500 490.793 214.914 M107.353 318.926 C 101.006 322.796,101.052 332.367,107.438 336.551 C 111.146 338.981,117.775 337.963,120.748 334.506 C 124.743 329.862,123.353 321.821,118.010 318.665 C 114.328 316.490,111.224 316.566,107.353 318.926 M148.225 319.004 C 142.003 322.798,141.529 330.743,147.238 335.547 C 149.941 337.821,151.073 338.139,154.920 337.706 C 164.027 336.679,167.203 327.003,160.600 320.400 C 156.621 316.421,153.111 316.025,148.225 319.004 M189.353 318.926 C 185.228 321.442,183.297 326.888,185.038 331.093 C 186.750 335.224,190.633 338.000,194.701 338.000 C 199.179 338.000,201.634 336.609,203.490 333.020 C 206.013 328.141,205.427 324.227,201.600 320.400 C 197.650 316.450,194.113 316.024,189.353 318.926 M229.898 319.284 C 221.198 325.130,225.374 338.000,235.970 338.000 C 240.184 338.000,242.664 336.550,244.490 333.020 C 247.528 327.144,245.776 321.487,239.989 318.494 C 236.026 316.445,233.870 316.614,229.898 319.284 M270.930 319.268 C 259.690 326.843,269.826 342.796,281.909 336.547 C 288.314 333.235,288.422 323.531,282.102 319.284 C 277.822 316.407,275.181 316.403,270.930 319.268 M311.111 319.560 C 303.736 325.765,307.428 338.000,316.675 338.000 C 321.521 338.000,324.713 336.126,326.584 332.181 C 328.933 327.232,327.604 322.309,323.102 319.284 C 318.672 316.306,314.874 316.394,311.111 319.560 M354.388 317.980 C 351.216 319.262,348.000 323.896,348.000 327.185 C 348.000 337.157,358.584 341.616,365.600 334.600 C 370.701 329.499,369.910 322.745,363.775 319.004 C 360.285 316.876,357.793 316.605,354.388 317.980 M392.273 320.527 C 389.024 323.776,388.787 324.415,389.263 328.639 C 389.920 334.468,392.482 337.075,398.184 337.717 C 401.913 338.138,403.081 337.803,405.762 335.547 C 411.471 330.743,410.997 322.798,404.775 319.004 C 399.839 315.995,396.384 316.416,392.273 320.527 M128.314 359.899 C 124.608 362.218,123.000 364.817,123.000 368.484 C 123.000 377.379,133.089 382.162,139.850 376.473 C 141.502 375.083,143.137 372.655,143.483 371.077 C 144.177 367.916,142.235 362.267,139.744 360.202 C 136.933 357.870,131.773 357.734,128.314 359.899 M170.388 358.980 C 162.794 362.049,161.851 373.803,168.907 377.452 C 178.446 382.385,186.997 374.014,183.043 363.613 C 181.399 359.290,175.220 357.028,170.388 358.980 M210.383 359.583 C 203.404 363.026,203.114 373.939,209.907 377.452 C 216.073 380.640,222.346 378.407,224.962 372.093 C 226.703 367.888,224.772 362.442,220.647 359.926 C 216.864 357.620,214.521 357.542,210.383 359.583 M249.400 361.400 C 241.871 368.929,247.854 380.563,258.251 378.613 C 270.356 376.342,267.776 358.000,255.353 358.000 C 253.783 358.000,251.491 359.309,249.400 361.400 M291.353 359.926 C 283.545 364.687,285.707 376.916,294.654 378.595 C 298.651 379.345,303.471 377.593,305.540 374.640 C 308.670 370.171,306.670 361.915,301.855 359.425 C 298.122 357.495,295.105 357.639,291.353 359.926 M333.020 359.284 C 329.831 360.898,328.033 364.504,328.015 369.327 C 327.981 378.078,338.331 382.230,344.894 376.099 C 353.495 368.065,343.536 353.963,333.020 359.284 M374.000 359.223 C 370.685 360.937,367.605 367.289,368.452 370.664 C 369.474 374.738,374.342 379.000,377.973 379.000 C 387.633 379.000,392.525 368.942,386.250 361.981 C 383.068 358.451,377.791 357.263,374.000 359.223 M158.704 400.596 C 151.940 404.264,152.527 415.223,159.684 418.883 C 161.247 419.682,188.637 420.000,255.984 420.000 C 360.554 420.000,354.688 420.384,357.628 413.348 C 359.601 408.625,357.981 403.569,353.647 400.926 C 350.602 399.070,347.443 399.009,256.000 399.044 C 173.499 399.075,161.145 399.273,158.704 400.596 "
  />
</svg>